<svg xmlns="http://www.w3.org/2000/svg" viewBox="0 0 260 220" fill="none">
  <rect x="28" y="58" width="204" height="96" rx="20" fill="#0f172a" stroke="#2563eb" stroke-width="6" />
  <g fill="#cbd5e1">
    <rect x="42" y="78" width="26" height="24" rx="6" />
    <rect x="76" y="78" width="26" height="24" rx="6" />
    <rect x="110" y="78" width="26" height="24" rx="6" />
    <rect x="144" y="78" width="26" height="24" rx="6" />
    <rect x="178" y="78" width="26" height="24" rx="6" />
    <rect x="42" y="112" width="26" height="24" rx="6" />
    <rect x="76" y="112" width="26" height="24" rx="6" />
    <rect x="110" y="112" width="26" height="24" rx="6" />
    <rect x="144" y="112" width="26" height="24" rx="6" />
    <rect x="178" y="112" width="26" height="24" rx="6" />
  </g>
  <rect x="28" y="168" width="204" height="16" rx="8" fill="#1e293b" />
</svg>
